<?xml version="1.0" encoding="UTF-8" standalone="no"?>
<!DOCTYPE svg PUBLIC "-//W3C//DTD SVG 1.1//EN" "http://www.w3.org/Graphics/SVG/1.1/DTD/svg11.dtd">
<svg xmlns="http://www.w3.org/2000/svg" version="1.1" viewBox="0.00 0.00 96.00 97.00">
<g stroke-width="2.00" fill="none" stroke-linecap="butt">
<path stroke="#f14748" stroke-opacity="0.988" vector-effect="non-scaling-stroke" d="
  M 17.18 19.34
  Q 14.65 19.25 13.46 22.23"
/>
<path stroke="#e84145" stroke-opacity="0.988" vector-effect="non-scaling-stroke" d="
  M 16.10 29.19
  Q 12.14 30.65 9.08 33.73"
/>
<path stroke="#e84145" stroke-opacity="0.988" vector-effect="non-scaling-stroke" d="
  M 3.88 36.42
  Q 2.16 35.12 4.25 31.85"
/>
<path stroke="#e84145" stroke-opacity="0.988" vector-effect="non-scaling-stroke" d="
  M 43.26 32.45
  Q 37.23 37.41 32.39 43.57"
/>
<path stroke="#e84145" stroke-opacity="0.988" vector-effect="non-scaling-stroke" d="
  M 12.98 57.24
  Q 10.77 57.64 8.70 59.18"
/>
<path stroke="#eb878d" vector-effect="non-scaling-stroke" d="
  M 8.70 59.18
  L 4.51 61.01
  A 1.20 1.20 0.0 0 1 2.86 60.13
  Q 2.20 56.51 3.91 55.88"
/>
<path stroke="#e84145" stroke-opacity="0.988" vector-effect="non-scaling-stroke" d="
  M 3.91 55.88
  Q 26.81 46.58 42.31 28.58"
/>
<path stroke="#f5b0b0" stroke-opacity="0.988" vector-effect="non-scaling-stroke" d="
  M 3.91 55.88
  L 4.25 55.18"
/>
<path stroke="#f5b0b0" stroke-opacity="0.988" vector-effect="non-scaling-stroke" d="
  M 8.70 59.18
  Q 9.49 59.73 9.06 59.33"
/>
<path stroke="#e84145" stroke-opacity="0.988" vector-effect="non-scaling-stroke" d="
  M 49.06 36.71
  Q 42.33 42.43 36.62 49.31"
/>
<path stroke="#eb878d" vector-effect="non-scaling-stroke" d="
  M 23.86 59.07
  L 4.39 69.64"
/>
<path stroke="#eb878d" vector-effect="non-scaling-stroke" d="
  M 3.35 69.75
  Q 2.40 66.30 3.60 63.17"
/>
<path stroke="#eb878d" vector-effect="non-scaling-stroke" d="
  M 4.78 62.52
  L 11.03 60.31"
/>
<path stroke="#e84145" stroke-opacity="0.988" vector-effect="non-scaling-stroke" d="
  M 11.03 60.31
  Q 26.50 53.00 39.11 41.61
  Q 39.51 41.25 39.54 40.75"
/>
<path stroke="#f5b0b0" stroke-opacity="0.988" vector-effect="non-scaling-stroke" d="
  M 11.03 60.31
  Q 10.97 60.10 10.92 59.88"
/>
<path stroke="#e84145" stroke-opacity="0.988" vector-effect="non-scaling-stroke" d="
  M 54.31 41.51
  Q 46.60 48.20 39.86 56.01"
/>
<path stroke="#eb878d" vector-effect="non-scaling-stroke" d="
  M 36.13 59.41
  Q 35.95 59.51 35.66 59.52
  Q 35.18 59.53 34.80 59.82
  Q 20.56 70.82 4.11 78.10
  A 0.95 0.95 0.0 0 1 2.78 77.21
  L 2.94 71.66"
/>
<path stroke="#eb878d" vector-effect="non-scaling-stroke" d="
  M 5.12 70.64
  Q 15.44 66.40 24.79 60.47"
/>
<path stroke="#e84145" stroke-opacity="0.988" vector-effect="non-scaling-stroke" d="
  M 24.79 60.47
  Q 41.97 50.53 54.22 35.56"
/>
<path stroke="#f5b0b0" stroke-opacity="0.988" vector-effect="non-scaling-stroke" d="
  M 24.79 60.47
  Q 24.37 59.85 24.56 60.12"
/>
<path stroke="#f5b0b0" stroke-opacity="0.988" vector-effect="non-scaling-stroke" d="
  M 2.72 94.13
  L 2.13 86.47"
/>
<path stroke="#eb878d" vector-effect="non-scaling-stroke" d="
  M 47.10 59.41
  Q 47.03 59.32 46.86 59.28
  Q 46.55 59.21 46.31 59.42
  Q 31.14 72.85 13.24 82.15"
/>
<path stroke="#e84145" stroke-opacity="0.988" vector-effect="non-scaling-stroke" d="
  M 13.24 82.15
  Q 10.93 83.05 10.20 83.48
  Q 7.20 85.23 10.46 84.01
  Q 11.57 83.59 13.46 82.44"
/>
<path stroke="#eb878d" vector-effect="non-scaling-stroke" d="
  M 13.46 82.44
  Q 31.97 74.02 47.24 60.85
  Q 47.46 60.67 47.55 60.45
  Q 47.76 59.99 47.59 59.93"
/>
<path stroke="#e84145" stroke-opacity="0.988" vector-effect="non-scaling-stroke" d="
  M 51.53 57.13
  Q 58.78 51.46 64.60 44.26"
/>
<path stroke="#e84145" stroke-opacity="0.988" vector-effect="non-scaling-stroke" d="
  M 67.69 40.72
  Q 69.90 39.58 70.51 37.24"
/>
<path stroke="#e84145" stroke-opacity="0.988" vector-effect="non-scaling-stroke" d="
  M 80.51 29.66
  L 67.84 47.25"
/>
<path stroke="#e84145" stroke-opacity="0.988" vector-effect="non-scaling-stroke" d="
  M 63.23 52.65
  L 48.74 67.05"
/>
<path stroke="#e84145" stroke-opacity="0.988" vector-effect="non-scaling-stroke" d="
  M 44.82 70.46
  Q 41.60 71.45 39.65 74.61"
/>
<path stroke="#e84145" stroke-opacity="0.988" vector-effect="non-scaling-stroke" d="
  M 36.71 76.45
  L 30.02 80.75"
/>
<path stroke="#e6282f" vector-effect="non-scaling-stroke" d="
  M 30.02 80.75
  L 21.51 85.92"
/>
<path stroke="#e84145" stroke-opacity="0.988" vector-effect="non-scaling-stroke" d="
  M 16.82 88.34
  Q 15.44 88.04 15.55 89.21"
/>
<path stroke="#e84145" stroke-opacity="0.988" vector-effect="non-scaling-stroke" d="
  M 10.95 91.19
  C 7.88 92.37 6.11 93.66 2.72 94.13"
/>
<path stroke="#eb878d" vector-effect="non-scaling-stroke" d="
  M 2.72 94.13
  L 2.95 80.10
  Q 2.96 79.33 3.68 79.03
  Q 21.47 71.87 36.84 60.62"
/>
<path stroke="#e84145" stroke-opacity="0.988" vector-effect="non-scaling-stroke" d="
  M 36.84 60.62
  Q 39.71 59.21 40.86 57.14"
/>
<path stroke="#f5b0b0" stroke-opacity="0.988" vector-effect="non-scaling-stroke" d="
  M 36.84 60.62
  Q 36.59 59.77 36.89 60.17"
/>
<path stroke="#f05052" stroke-opacity="0.988" vector-effect="non-scaling-stroke" d="
  M 37.07 78.91
  Q 35.88 78.90 34.38 79.78"
/>
<path stroke="#f05052" stroke-opacity="0.988" vector-effect="non-scaling-stroke" d="
  M 30.47 80.96
  Q 30.68 80.70 30.02 80.75"
/>
<path stroke="#f5b0b0" stroke-opacity="0.988" vector-effect="non-scaling-stroke" d="
  M 13.46 82.44
  Q 13.54 82.36 13.24 82.15"
/>
<path stroke="#e84145" stroke-opacity="0.988" vector-effect="non-scaling-stroke" d="
  M 32.68 22.96
  Q 20.10 36.69 4.77 44.04
  A 1.41 1.41 0.0 0 1 2.78 42.49
  Q 3.11 40.88 4.61 40.17
  Q 10.04 37.62 14.51 34.36"
/>
<path stroke="#e84145" stroke-opacity="0.988" vector-effect="non-scaling-stroke" d="
  M 38.24 27.37
  Q 23.36 43.58 4.12 52.76
  A 0.96 0.96 0.0 0 1 2.74 51.83
  L 2.93 48.87
  A 0.83 0.81 82.3 0 1 3.46 48.16
  Q 12.90 44.65 20.28 38.66"
/>
<path stroke="#f14748" stroke-opacity="0.988" vector-effect="non-scaling-stroke" d="
  M 54.55 67.03
  Q 56.12 71.63 59.18 73.71"
/>
</g>
<path fill="#f12528" d="
  M 17.18 19.34
  Q 14.65 19.25 13.46 22.23
  L 4.07 27.97
  A 1.46 1.45 -29.1 0 1 2.02 27.39
  C 1.44 26.25 2.31 24.83 3.50 24.29
  Q 19.67 16.87 28.10 1.11
  A 0.41 0.41 0.0 0 1 28.87 1.25
  C 29.52 6.20 19.68 16.98 17.18 19.34
  Z"
/>
<path fill="#de1922" d="
  M 16.10 29.19
  Q 12.14 30.65 9.08 33.73
  L 3.88 36.42
  Q 2.16 35.12 4.25 31.85
  Q 25.55 21.85 36.19 0.94
  A 0.43 0.43 0.0 0 1 37.00 1.17
  C 36.28 10.79 23.35 23.90 16.10 29.19
  Z"
/>
<path fill="#de1922" d="
  M 43.26 32.45
  Q 37.23 37.41 32.39 43.57
  Q 23.78 51.44 12.98 57.24
  Q 10.77 57.64 8.70 59.18
  L 4.51 61.01
  A 1.20 1.20 0.0 0 1 2.86 60.13
  Q 2.20 56.51 3.91 55.88
  Q 26.81 46.58 42.31 28.58
  Q 53.02 15.89 60.55 1.08
  Q 60.77 0.65 61.21 0.84
  Q 62.33 1.31 61.85 2.56
  Q 55.72 18.56 43.26 32.45
  Z"
/>
<path fill="#de1922" d="
  M 49.06 36.71
  Q 42.33 42.43 36.62 49.31
  Q 30.96 54.65 23.86 59.07
  L 4.39 69.64
  Q 3.98 69.83 3.35 69.75
  Q 2.40 66.30 3.60 63.17
  Q 4.32 63.00 4.78 62.52
  L 11.03 60.31
  Q 26.50 53.00 39.11 41.61
  Q 39.51 41.25 39.54 40.75
  Q 57.68 23.91 68.37 1.34
  Q 68.55 0.97 68.93 0.77
  A 0.55 0.54 -17.3 0 1 69.72 1.18
  C 69.98 3.17 69.21 4.25 68.46 5.96
  Q 61.06 22.93 49.06 36.71
  Z"
/>
<path fill="#de1922" d="
  M 54.31 41.51
  Q 46.60 48.20 39.86 56.01
  L 36.13 59.41
  Q 35.95 59.51 35.66 59.52
  Q 35.18 59.53 34.80 59.82
  Q 20.56 70.82 4.11 78.10
  A 0.95 0.95 0.0 0 1 2.78 77.21
  L 2.94 71.66
  L 5.12 70.64
  Q 15.44 66.40 24.79 60.47
  Q 41.97 50.53 54.22 35.56
  Q 67.77 19.77 76.52 1.01
  A 0.64 0.64 0.0 0 1 77.74 1.26
  C 77.77 1.93 77.82 3.20 77.55 3.86
  Q 69.11 24.71 54.31 41.51
  Z"
/>
<path fill="#de1922" d="
  M 47.10 59.41
  Q 47.03 59.32 46.86 59.28
  Q 46.55 59.21 46.31 59.42
  Q 31.14 72.85 13.24 82.15
  Q 10.93 83.05 10.20 83.48
  Q 7.20 85.23 10.46 84.01
  Q 11.57 83.59 13.46 82.44
  Q 31.97 74.02 47.24 60.85
  Q 47.46 60.67 47.55 60.45
  Q 47.76 59.99 47.59 59.93
  L 51.53 57.13
  Q 58.78 51.46 64.60 44.26
  L 67.69 40.72
  Q 69.90 39.58 70.51 37.24
  Q 83.59 20.65 92.27 1.15
  A 0.90 0.90 0.0 0 1 93.98 1.42
  Q 94.09 2.42 93.63 3.70
  Q 88.63 17.71 80.51 29.66
  L 67.84 47.25
  L 63.23 52.65
  L 48.74 67.05
  L 44.82 70.46
  Q 41.60 71.45 39.65 74.61
  L 36.71 76.45
  L 30.02 80.75
  L 21.51 85.92
  Q 19.53 87.64 16.82 88.34
  Q 15.44 88.04 15.55 89.21
  L 10.95 91.19
  C 7.88 92.37 6.11 93.66 2.72 94.13
  L 2.95 80.10
  Q 2.96 79.33 3.68 79.03
  Q 21.47 71.87 36.84 60.62
  Q 39.71 59.21 40.86 57.14
  Q 69.11 34.64 84.36 1.31
  A 0.79 0.78 -81.4 0 1 84.96 0.86
  Q 86.14 0.68 85.87 2.27
  Q 85.39 5.09 84.21 7.70
  Q 70.83 37.25 47.10 59.41
  Z"
/>
<path fill="#ee373c" d="
  M 13.54 2.68
  A 0.25 0.25 0.0 0 1 13.52 3.03
  L 4.41 11.32
  A 1.97 1.12 -42.3 0 1 2.20 11.82
  L 2.17 11.79
  A 1.97 1.12 -42.3 0 1 2.87 9.63
  L 11.98 1.34
  A 0.25 0.25 0.0 0 1 12.34 1.36
  L 13.54 2.68
  Z"
/>
<path fill="#f12528" d="
  M 21.12 1.77
  C 18.68 9.47 10.56 16.89 2.86 19.93
  Q 2.41 20.11 2.20 19.67
  Q 1.20 17.54 3.07 16.54
  Q 8.18 13.82 11.61 11.24
  C 15.02 8.67 17.45 4.77 20.09 1.24
  A 0.59 0.59 0.0 0 1 21.12 1.77
  Z"
/>
<path fill="#de1922" d="
  M 32.68 22.96
  Q 20.10 36.69 4.77 44.04
  A 1.41 1.41 0.0 0 1 2.78 42.49
  Q 3.11 40.88 4.61 40.17
  Q 10.04 37.62 14.51 34.36
  Q 34.05 21.75 43.95 1.29
  A 0.64 0.63 32.6 0 1 44.93 1.08
  C 45.58 1.61 45.63 2.51 45.29 3.30
  Q 40.44 14.53 32.68 22.96
  Z"
/>
<path fill="#de1922" d="
  M 38.24 27.37
  Q 23.36 43.58 4.12 52.76
  A 0.96 0.96 0.0 0 1 2.74 51.83
  L 2.93 48.87
  A 0.83 0.81 82.3 0 1 3.46 48.16
  Q 12.90 44.65 20.28 38.66
  Q 41.03 24.50 51.55 1.95
  Q 51.76 1.51 52.21 1.32
  L 53.07 0.97
  A 0.56 0.56 0.0 0 1 53.81 1.69
  Q 48.19 16.31 38.24 27.37
  Z"
/>
<ellipse fill="#f26a68" fill-opacity="0.973" cx="0.00" cy="0.00" transform="translate(3.45,2.56) rotate(-38.5)" rx="1.77" ry="1.10"/>
<path fill="#f26a68" fill-opacity="0.973" d="
  M 17.18 19.34
  L 13.46 22.23
  Q 14.65 19.25 17.18 19.34
  Z"
/>
<path fill="#f26a68" fill-opacity="0.973" d="
  M 32.68 22.96
  Q 20.68 37.83 3.41 45.16
  A 0.99 0.98 -17.3 0 1 2.06 44.46
  C 1.02 39.44 9.52 36.54 14.51 34.36
  Q 10.04 37.62 4.61 40.17
  Q 3.11 40.88 2.78 42.49
  A 1.41 1.41 0.0 0 0 4.77 44.04
  Q 20.10 36.69 32.68 22.96
  Z"
/>
<path fill="#f26a68" fill-opacity="0.973" d="
  M 38.24 27.37
  Q 23.81 45.10 2.67 54.06
  Q 1.97 54.36 1.98 53.60
  L 2.07 48.86
  A 0.90 0.89 -11.4 0 1 2.61 48.06
  Q 11.87 44.01 20.28 38.66
  Q 12.90 44.65 3.46 48.16
  A 0.83 0.81 82.3 0 0 2.93 48.87
  L 2.74 51.83
  A 0.96 0.96 0.0 0 0 4.12 52.76
  Q 23.36 43.58 38.24 27.37
  Z"
/>
<path fill="#f26a68" fill-opacity="0.973" d="
  M 42.31 28.58
  Q 26.81 46.58 3.91 55.88
  L 4.25 55.18
  Q 25.68 45.77 42.31 28.58
  Z"
/>
<path fill="#f26a68" fill-opacity="0.973" d="
  M 16.10 29.19
  Q 12.94 32.16 9.08 33.73
  Q 12.14 30.65 16.10 29.19
  Z"
/>
<path fill="#f26a68" fill-opacity="0.973" d="
  M 80.51 29.66
  Q 75.16 39.21 67.84 47.25
  L 80.51 29.66
  Z"
/>
<path fill="#f26a68" fill-opacity="0.973" d="
  M 4.25 31.85
  Q 2.16 35.12 3.88 36.42
  Q 3.39 36.95 2.84 37.00
  Q 2.33 37.06 2.17 36.57
  Q 1.10 33.18 4.25 31.85
  Z"
/>
<path fill="#f26a68" fill-opacity="0.973" d="
  M 43.26 32.45
  Q 38.59 38.54 32.39 43.57
  Q 37.23 37.41 43.26 32.45
  Z"
/>
<path fill="#f26a68" fill-opacity="0.973" d="
  M 54.22 35.56
  Q 41.97 50.53 24.79 60.47
  Q 24.37 59.85 24.56 60.12
  Q 39.03 51.04 45.81 43.81
  Q 49.89 39.46 54.22 35.56
  Z"
/>
<path fill="#f26a68" fill-opacity="0.973" d="
  M 49.06 36.71
  Q 43.56 43.57 36.62 49.31
  Q 42.33 42.43 49.06 36.71
  Z"
/>
<path fill="#f26a68" fill-opacity="0.973" d="
  M 70.51 37.24
  Q 69.90 39.58 67.69 40.72
  Q 68.45 38.70 70.51 37.24
  Z"
/>
<path fill="#f26a68" fill-opacity="0.973" d="
  M 39.54 40.75
  Q 39.51 41.25 39.11 41.61
  Q 26.50 53.00 11.03 60.31
  Q 10.97 60.10 10.92 59.88
  Q 26.14 51.91 39.54 40.75
  Z"
/>
<path fill="#f26a68" fill-opacity="0.973" d="
  M 54.31 41.51
  Q 47.84 49.39 39.86 56.01
  Q 46.60 48.20 54.31 41.51
  Z"
/>
<path fill="#f26a68" fill-opacity="0.973" d="
  M 64.60 44.26
  Q 58.78 51.46 51.53 57.13
  L 64.60 44.26
  Z"
/>
<path fill="#f12528" d="
  M 92.29 94.63
  A 0.88 0.79 8.1 0 1 92.02 94.31
  Q 81.82 72.90 66.51 54.79
  Q 66.08 54.28 66.56 53.81
  L 68.92 51.47
  A 0.49 0.49 0.0 0 1 69.65 51.52
  Q 85.34 71.11 94.54 94.47
  Q 94.78 95.10 94.11 95.15
  Q 93.14 95.23 92.29 94.63
  Z"
/>
<path fill="#f26a68" fill-opacity="0.973" d="
  M 63.23 52.65
  Q 56.69 60.46 48.74 67.05
  L 63.23 52.65
  Z"
/>
<path fill="#f8f4f7" d="
  M 4.25 55.18
  L 3.91 55.88
  Q 2.20 56.51 2.86 60.13
  A 1.20 1.20 0.0 0 0 4.51 61.01
  L 8.70 59.18
  Q 9.49 59.73 9.06 59.33
  Q 9.62 60.38 10.92 59.88
  Q 10.97 60.10 11.03 60.31
  L 4.78 62.52
  Q 4.37 61.65 2.71 61.97
  Q 2.12 62.09 2.06 61.48
  C 1.87 59.47 1.26 55.24 4.25 55.18
  Z"
/>
<path fill="#f12528" d="
  M 85.08 95.14
  C 84.37 94.97 83.87 94.74 83.55 94.01
  Q 75.14 75.25 61.54 59.73
  Q 61.13 59.27 61.56 58.83
  L 63.78 56.59
  Q 64.26 56.10 64.68 56.64
  Q 77.84 73.55 85.75 92.74
  Q 86.16 93.73 85.95 94.61
  A 0.72 0.71 -76.1 0 1 85.08 95.14
  Z"
/>
<path fill="#f26a68" fill-opacity="0.973" d="
  M 40.86 57.14
  Q 39.71 59.21 36.84 60.62
  Q 36.59 59.77 36.89 60.17
  L 40.86 57.14
  Z"
/>
<path fill="#f26a68" fill-opacity="0.973" d="
  M 12.98 57.24
  Q 11.56 58.72 9.06 59.33
  Q 9.49 59.73 8.70 59.18
  Q 10.77 57.64 12.98 57.24
  Z"
/>
<path fill="#f8f4f7" d="
  M 23.86 59.07
  L 24.56 60.12
  Q 24.37 59.85 24.79 60.47
  Q 15.44 66.40 5.12 70.64
  L 4.39 69.64
  L 23.86 59.07
  Z"
/>
<path fill="#f8f4f7" d="
  M 47.10 59.41
  L 47.59 59.93
  Q 47.76 59.99 47.55 60.45
  Q 47.46 60.67 47.24 60.85
  Q 31.97 74.02 13.46 82.44
  Q 13.54 82.36 13.24 82.15
  Q 31.14 72.85 46.31 59.42
  Q 46.55 59.21 46.86 59.28
  Q 47.03 59.32 47.10 59.41
  Z"
/>
<path fill="#f8f4f7" d="
  M 36.13 59.41
  Q 36.18 59.97 36.89 60.17
  Q 36.59 59.77 36.84 60.62
  Q 21.47 71.87 3.68 79.03
  Q 2.96 79.33 2.95 80.10
  L 2.72 94.13
  L 2.13 86.47
  Q 1.87 79.92 2.05 73.30
  C 2.07 72.53 2.42 72.15 2.94 71.66
  L 2.78 77.21
  A 0.95 0.95 0.0 0 0 4.11 78.10
  Q 20.56 70.82 34.80 59.82
  Q 35.18 59.53 35.66 59.52
  Q 35.95 59.51 36.13 59.41
  Z"
/>
<path fill="#f12528" d="
  M 57.22 62.27
  Q 57.59 61.74 57.76 61.65
  A 1.70 1.70 0.0 0 1 59.90 62.12
  Q 71.15 76.86 77.57 93.35
  Q 77.96 94.35 77.79 94.65
  A 1.08 1.06 47.6 0 1 75.89 94.55
  Q 68.28 78.06 56.52 64.16
  A 1.57 0.90 86.8 0 1 56.39 63.96
  Q 55.99 63.12 56.66 62.76
  Q 57.00 62.58 57.22 62.27
  Z"
/>
<path fill="#f8f4f7" d="
  M 3.60 63.17
  Q 2.40 66.30 3.35 69.75
  Q 2.95 70.13 2.54 70.00
  Q 2.07 69.86 2.04 69.36
  C 1.92 67.28 1.47 64.01 3.60 63.17
  Z"
/>
<path fill="#f12528" d="
  M 54.55 67.03
  Q 56.12 71.63 59.18 73.71
  Q 65.53 82.85 69.85 93.83
  A 0.83 0.82 51.8 0 1 69.76 94.60
  Q 68.84 95.96 68.09 94.46
  Q 61.07 80.50 51.19 68.39
  Q 50.86 67.98 51.25 67.62
  Q 53.67 65.42 54.55 67.03
  Z"
/>
<path fill="#f26a68" fill-opacity="0.973" d="
  M 54.55 67.03
  L 59.18 73.71
  Q 56.12 71.63 54.55 67.03
  Z"
/>
<path fill="#ee373c" d="
  M 48.45 69.81
  A 0.20 0.20 0.0 0 1 48.73 69.88
  L 48.82 70.03
  A 28.22 1.62 59.2 0 1 61.88 95.10
  L 61.85 95.12
  A 28.22 1.62 59.2 0 1 46.00 71.71
  L 45.91 71.56
  A 0.20 0.20 0.0 0 1 45.98 71.28
  L 48.45 69.81
  Z"
/>
<path fill="#f26a68" fill-opacity="0.973" d="
  M 44.82 70.46
  L 39.65 74.61
  Q 41.60 71.45 44.82 70.46
  Z"
/>
<path fill="#ee373c" d="
  M 42.46 74.07
  A 0.30 0.30 0.0 0 1 42.87 74.17
  L 42.97 74.33
  A 23.41 1.42 58.8 0 1 53.88 95.09
  L 53.70 95.21
  A 23.41 1.42 58.8 0 1 40.35 75.92
  L 40.26 75.76
  A 0.30 0.30 0.0 0 1 40.36 75.35
  L 42.46 74.07
  Z"
/>
<path fill="#f26a68" fill-opacity="0.973" d="
  M 36.71 76.45
  Q 35.79 77.41 37.07 78.91
  Q 35.88 78.90 34.38 79.78
  Q 33.72 78.65 30.47 80.96
  Q 30.68 80.70 30.02 80.75
  L 36.71 76.45
  Z"
/>
<path fill="#ee373c" d="
  M 37.07 78.91
  Q 42.06 86.39 45.72 94.63
  Q 45.98 95.20 45.35 95.24
  Q 44.54 95.29 44.02 94.46
  Q 39.45 87.08 34.38 79.78
  Q 35.88 78.90 37.07 78.91
  Z"
/>
<path fill="#ee373c" d="
  M 30.02 80.75
  Q 30.68 80.70 30.47 80.96
  Q 30.30 80.91 30.26 81.27
  A 1.11 1.11 0.0 0 0 30.43 82.01
  Q 33.78 87.04 36.62 92.34
  Q 37.35 93.70 36.84 94.55
  A 0.89 0.88 -41.6 0 1 35.28 94.46
  Q 32.60 88.63 28.57 83.59
  A 0.96 0.96 0.0 0 0 27.36 83.34
  L 24.54 84.84
  Q 23.91 85.18 24.36 85.74
  Q 27.43 89.60 28.86 94.35
  A 0.51 0.50 82.9 0 1 28.36 95.00
  Q 28.15 95.00 27.97 95.00
  A 0.75 0.75 0.0 0 1 27.25 94.54
  Q 25.30 89.83 21.51 85.92
  L 30.02 80.75
  Z"
/>
<path fill="#f26a68" fill-opacity="0.973" d="
  M 13.24 82.15
  Q 13.54 82.36 13.46 82.44
  Q 11.57 83.59 10.46 84.01
  Q 7.20 85.23 10.20 83.48
  Q 10.93 83.05 13.24 82.15
  Z"
/>
<path fill="#f26a68" fill-opacity="0.973" d="
  M 2.13 86.47
  L 2.72 94.13
  C 6.11 93.66 7.88 92.37 10.95 91.19
  L 12.44 94.05
  A 0.57 0.57 0.0 0 1 11.58 94.76
  L 9.20 92.91
  A 0.60 0.58 -37.9 0 0 8.59 92.84
  L 3.02 95.27
  Q 2.17 95.65 2.16 94.71
  L 2.13 86.47
  Z"
/>
<path fill="#f26a68" fill-opacity="0.973" d="
  M 16.82 88.34
  Q 19.84 91.01 20.92 94.03
  A 0.77 0.77 0.0 0 1 19.58 94.74
  L 15.55 89.21
  Q 15.44 88.04 16.82 88.34
  Z"
/>
</svg>
